<svg width="93" height="47" viewBox="0 0 93 47" fill="none" xmlns="http://www.w3.org/2000/svg">
<g clip-path="url(#clip0_131_49)">
<path d="M92.1494 21.4234H54.0506C54.3983 18.4566 55.5995 15.657 57.5065 13.3687C59.4135 11.0804 61.943 9.40333 64.784 8.54379C67.6249 7.68425 70.6534 7.6797 73.4969 8.53074C76.3404 9.38179 78.8749 11.0512 80.7886 13.3337L86.3301 7.7217C83.3164 4.33579 79.3817 1.91563 75.0145 0.761392C70.6473 -0.392848 66.0396 -0.230336 61.7633 1.22885C57.4869 2.68804 53.7302 5.37961 50.9591 8.96961C48.1881 12.5596 46.5247 16.8899 46.1754 21.4234H46.0427C45.6935 16.8899 44.0301 12.5596 41.2591 8.96961C38.488 5.37961 34.7312 2.68804 30.4549 1.22885C26.1786 -0.230336 21.5709 -0.392848 17.2037 0.761392C12.8364 1.91563 8.90183 4.33579 5.8881 7.7217L11.4296 13.3337C13.3433 11.0512 15.8778 9.38179 18.7212 8.53074C21.5647 7.6797 24.5932 7.68425 27.4342 8.54379C30.2751 9.40333 32.8047 11.0804 34.7117 13.3687C36.6186 15.657 37.8199 18.4566 38.1676 21.4234H0.0672043C0.0224563 22.0155 -0.000424191 22.6136 -0.00146484 23.2172C-0.000850242 28.9117 2.0775 34.4073 5.83849 38.6594C9.59948 42.9116 14.7809 45.6238 20.3976 46.2802C26.0143 46.9367 31.6748 45.4917 36.3028 42.2201C40.9309 38.9484 44.2039 34.0782 45.4995 28.5353H46.714C48.0041 34.0836 51.2752 38.9603 55.9045 42.237C60.5339 45.5136 66.1981 46.9612 71.8187 46.3042C77.4393 45.6473 82.6237 42.9317 86.3848 38.6744C90.1459 34.4171 92.221 28.9156 92.215 23.2172C92.217 22.6136 92.1952 22.0155 92.1494 21.4234ZM23.0542 38.5412C19.9394 38.5415 16.8995 37.5792 14.345 35.7842C11.7905 33.9892 9.84447 31.448 8.76966 28.5038H37.3356C36.2608 31.4474 34.3152 33.9882 31.7614 35.7831C29.2075 37.578 26.1684 38.5406 23.0542 38.5412ZM69.1624 38.5412C66.0474 38.5416 63.0072 37.5794 60.4525 35.7844C57.8977 33.9894 55.9514 31.4481 54.8763 28.5038H83.4423C82.3676 31.4469 80.4225 33.9872 77.8693 35.7821C75.3161 37.577 72.2761 38.5399 69.1624 38.5412Z" fill="white"/>
</g>
<defs>
<clipPath id="clip0_131_49">
<rect width="92.218" height="46.436" fill="white"/>
</clipPath>
</defs>
</svg>
