<svg width="93" height="47" viewBox="0 0 93 47" fill="none" xmlns="http://www.w3.org/2000/svg">
<g clip-path="url(#clip0_73_127)">
<path d="M92.5547 21.7565H54.4558C54.8036 18.7897 56.0048 15.9901 57.9118 13.7018C59.8187 11.4135 62.3483 9.73646 65.1893 8.87692C68.0302 8.01738 71.0587 8.01283 73.9022 8.86387C76.7457 9.71492 79.2802 11.3843 81.1939 13.6669L86.7354 8.05483C83.7216 4.66892 79.787 2.24876 75.4198 1.09452C71.0525 -0.0597179 66.4449 0.102794 62.1685 1.56198C57.8922 3.02117 54.1355 5.71274 51.3644 9.30274C48.5933 12.8927 46.93 17.2231 46.5807 21.7565H46.448C46.0987 17.2231 44.4354 12.8927 41.6643 9.30274C38.8933 5.71274 35.1365 3.02117 30.8602 1.56198C26.5838 0.102794 21.9762 -0.0597179 17.6089 1.09452C13.2417 2.24876 9.3071 4.66892 6.29338 8.05483L11.8349 13.6669C13.7486 11.3843 16.283 9.71492 19.1265 8.86387C21.97 8.01283 24.9985 8.01738 27.8395 8.87692C30.6804 9.73646 33.21 11.4135 35.1169 13.7018C37.0239 15.9901 38.2251 18.7897 38.5729 21.7565H0.472478C0.42773 22.3486 0.404849 22.9467 0.403809 23.5504C0.404423 29.2448 2.48277 34.7404 6.24376 38.9925C10.0048 43.2447 15.1861 45.9569 20.8029 46.6134C26.4196 47.2699 32.0801 45.8248 36.7081 42.5532C41.3362 39.2816 44.6092 34.4114 45.9048 28.8684H47.1193C48.4093 34.4167 51.6805 39.2935 56.3098 42.5701C60.9391 45.8467 66.6033 47.2943 72.2239 46.6374C77.8445 45.9804 83.029 43.2648 86.7901 39.0075C90.5512 34.7502 92.6262 29.2487 92.6202 23.5504C92.6223 22.9467 92.6005 22.3486 92.5547 21.7565ZM23.4595 38.8743C20.3446 38.8746 17.3047 37.9123 14.7503 36.1173C12.1958 34.3224 10.2497 31.7811 9.17493 28.8369H37.7409C36.6661 31.7805 34.7205 34.3213 32.1666 36.1162C29.6128 37.9111 26.5737 38.8737 23.4595 38.8743ZM69.5677 38.8743C66.4526 38.8747 63.4125 37.9125 60.8578 36.1175C58.303 34.3226 56.3567 31.7813 55.2816 28.8369H83.8475C82.7729 31.78 80.8278 34.3204 78.2746 36.1152C75.7214 37.9101 72.6814 38.8731 69.5677 38.8743Z" fill="white"/>
</g>
<defs>
<clipPath id="clip0_73_127">
<rect width="92.218" height="46.436" fill="white" transform="translate(0.405273 0.333008)"/>
</clipPath>
</defs>
</svg>
