<svg width="64" height="62" viewBox="0 0 64 62" fill="none" xmlns="http://www.w3.org/2000/svg">
<path d="M63.4285 27.7404C63.4285 23.7367 63.4285 19.7331 63.4285 15.7294C63.4285 14.778 62.9361 14.082 61.8544 13.6286C59.9413 12.8241 58.0443 11.9876 56.1392 11.1639C52.3533 9.5292 48.5673 7.89454 44.7814 6.25987C41.8673 5.00195 38.9612 3.74403 36.0471 2.4861C35.0381 2.0519 34.029 1.61769 33.02 1.18348C32.4388 0.934452 31.8333 0.819515 31.1795 0.953608C30.8727 1.01746 30.574 1.10686 30.2996 1.22818C28.6932 1.91142 27.0949 2.60743 25.4965 3.29705C22.3645 4.65075 19.2324 5.99807 16.1003 7.35178C11.9511 9.14608 7.80193 10.934 3.65274 12.7283C2.87779 13.0667 2.0867 13.3796 1.3279 13.7436C0.32693 14.2225 -0.125122 14.9376 0.0524703 15.8763C0.068615 15.9401 0.068615 16.004 0.0605427 16.0678C0.0443979 16.3424 0.00403618 16.6106 0.00403618 16.8852C0.00403618 24.3369 0.00403618 31.7823 0.00403618 39.2341C0.00403618 39.4831 -0.0121085 39.7385 0.0201809 39.9875C0.068615 40.4792 0.100904 40.9709 0.213917 41.4498C0.77091 43.7932 2.15128 45.7791 4.37925 47.3946C5.09769 47.9118 5.8242 48.4163 6.55072 48.9207C9.67472 51.0854 12.9682 53.0776 16.399 54.9294C20.8711 57.3431 25.5611 59.463 30.4368 61.3275C31.2925 61.6532 32.1482 61.666 32.9877 61.3212C35.0138 60.4974 37.0561 59.6929 39.05 58.8181C44.7733 56.3086 50.1414 53.3777 55.1624 50.0573C56.6558 49.0676 58.1411 48.0587 59.5215 46.9796C62.1208 44.9426 63.3882 42.4268 63.4205 39.547C63.4608 35.6199 63.4285 31.6801 63.4285 27.7404ZM58.4963 43.2633C58.0281 43.921 57.4469 44.5084 56.7446 45.0129C52.0546 48.4035 47.0336 51.4493 41.6574 54.1376C38.5576 55.6892 35.369 57.1004 32.0916 58.403C31.8172 58.5116 31.5992 58.5052 31.3248 58.3966C26.0212 56.3022 20.9599 53.8886 16.1649 51.1365C12.9602 49.2975 9.90882 47.318 6.96241 45.2236C5.74348 44.3615 4.80709 43.359 4.29046 42.133C4.016 41.4881 3.87069 40.8176 3.8384 40.1408C3.83033 39.9684 3.83033 39.796 3.83033 39.6236C3.83033 32.6571 3.83033 25.6843 3.83033 18.7178C3.83033 18.5454 3.83033 18.3794 3.83033 18.1431C4.08058 18.207 4.25817 18.2389 4.41961 18.29C5.63047 18.7114 6.83325 19.1456 8.0441 19.5734C8.12482 19.599 8.19748 19.6309 8.2782 19.6564L8.30242 19.5287L12.6373 21.1059V36.2393C12.6373 36.2393 13.275 41.0986 29.3955 47.0562V24.1071C22.5178 21.6678 15.6402 19.235 8.75447 16.8022C7.7535 16.451 6.7606 16.0934 5.75963 15.7422C5.59011 15.6847 5.42866 15.6081 5.26721 15.5442C5.26721 15.5123 5.26721 15.474 5.25914 15.4421C5.40444 15.3718 5.54167 15.2952 5.69505 15.2314C10.8452 13.0092 15.9954 10.7871 21.1375 8.565C24.5359 7.10275 27.9344 5.64049 31.3248 4.16546C31.6154 4.03776 31.8414 4.05053 32.1159 4.17185C34.0209 5.00195 35.926 5.81928 37.8311 6.643C41.173 8.0861 44.5069 9.5292 47.8489 10.9659C51.1182 12.3771 54.3875 13.7883 57.6649 15.1994C57.8263 15.2697 57.9716 15.3591 58.1976 15.474C57.9635 15.5698 57.8182 15.6336 57.6649 15.6911C54.9526 16.6617 52.2322 17.6259 49.5118 18.5965C46.4766 19.6756 43.4414 20.7547 40.4062 21.8339C38.2912 22.5873 36.1763 23.3344 34.0613 24.0943V47.203C50.5773 41.1816 51.2231 36.2393 51.2231 36.2393V21.2719L52.7972 20.6973C52.7972 20.6653 52.8053 20.6334 52.8134 20.6079L59.5377 18.1878C59.5619 18.2517 59.5861 18.3155 59.5942 18.3666C59.6103 18.4688 59.6022 18.5709 59.6022 18.6795C59.6022 25.6715 59.6022 32.6635 59.6022 39.6555C59.6022 40.9262 59.2955 42.1394 58.4963 43.2633Z" fill="white"/>
</svg>
