<svg width="48" height="61" viewBox="0 0 48 61" fill="none" xmlns="http://www.w3.org/2000/svg">
<path d="M47.5714 26.8434C47.5714 22.8397 47.5714 18.8361 47.5714 14.8324C47.5714 13.881 47.2021 13.185 46.3908 12.7317C44.956 11.9271 43.5332 11.0906 42.1044 10.2669C39.2649 8.63223 36.4255 6.99756 33.586 5.3629C31.4004 4.10498 29.2209 2.84705 27.0353 1.58913C26.2785 1.15492 25.5218 0.720717 24.765 0.28651C24.3291 0.0374794 23.875 -0.0774577 23.3846 0.0566356C23.1545 0.12049 22.9305 0.209885 22.7247 0.331208C21.5199 1.01445 20.3211 1.71045 19.1224 2.40008C16.7733 3.75378 14.4243 5.1011 12.0752 6.45481C8.96334 8.2491 5.85145 10.037 2.73956 11.8313C2.15835 12.1697 1.56503 12.4826 0.995927 12.8466C0.245198 13.3255 -0.0938411 14.0407 0.0393527 14.9793C0.0514613 15.0432 0.0514613 15.107 0.045407 15.1709C0.0332985 15.4454 0.00302713 15.7136 0.00302713 15.9882C0.00302713 23.44 0.00302713 30.8853 0.00302713 38.3371C0.00302713 38.5861 -0.0090814 38.8415 0.0151357 39.0906C0.0514613 39.5823 0.0756783 40.0739 0.160438 40.5528C0.578182 42.8963 1.61346 44.8821 3.28444 46.4976C3.82327 47.0149 4.36815 47.5193 4.91304 48.0238C7.25604 50.1884 9.72618 52.1806 12.2992 54.0324C15.6533 56.4461 19.1708 58.566 22.8276 60.4306C23.4694 60.7562 24.1111 60.769 24.7408 60.4242C26.2604 59.6005 27.7921 58.7959 29.2875 57.9211C33.58 55.4117 37.6061 52.4808 41.3718 49.1603C42.4919 48.1706 43.6059 47.1617 44.6411 46.0826C46.5906 44.0456 47.5411 41.5298 47.5653 38.65C47.5956 34.723 47.5714 30.7832 47.5714 26.8434ZM43.8722 42.3663C43.5211 43.024 43.0852 43.6114 42.5585 44.1159C39.0409 47.5065 35.2752 50.5524 31.243 53.2406C28.9182 54.7923 26.5268 56.2034 24.0687 57.5061C23.8629 57.6146 23.6994 57.6082 23.4936 57.4997C19.5159 55.4053 15.7199 52.9916 12.1237 50.2395C9.72012 48.4005 7.43161 46.421 5.2218 44.3266C4.30761 43.4646 3.60532 42.4621 3.21784 41.2361C3.012 40.5911 2.90302 39.9207 2.8788 39.2438C2.87275 39.0714 2.87275 38.899 2.87275 38.7266C2.87275 31.7601 2.87275 24.7873 2.87275 17.8208C2.87275 17.6484 2.87275 17.4824 2.87275 17.2461C3.06043 17.31 3.19363 17.3419 3.31471 17.393C4.22285 17.8144 5.12494 18.2486 6.03308 18.6765C6.09362 18.702 6.14811 18.7339 6.20865 18.7595L6.22681 18.6318L9.47795 20.209V35.3423C9.47795 35.3423 9.95624 40.2016 22.0466 46.1592V23.2101C16.8884 20.7709 11.7301 18.338 6.56585 15.9052C5.81512 15.554 5.07045 15.1964 4.31972 14.8452C4.19258 14.7878 4.07149 14.7111 3.95041 14.6473C3.95041 14.6153 3.95041 14.577 3.94435 14.5451C4.05333 14.4749 4.15625 14.3982 4.27128 14.3344C8.13391 12.1123 11.9965 9.89015 15.8531 7.66803C18.4019 6.20577 20.9508 4.74352 23.4936 3.26849C23.7115 3.14078 23.8811 3.15355 24.0869 3.27488C25.5157 4.10498 26.9445 4.92231 28.3733 5.74603C30.8798 7.18913 33.3802 8.63223 35.8867 10.0689C38.3386 11.4801 40.7906 12.8913 43.2487 14.3025C43.3697 14.3727 43.4787 14.4621 43.6482 14.577C43.4727 14.6728 43.3637 14.7367 43.2487 14.7941C41.2144 15.7647 39.1741 16.7289 37.1338 17.6995C34.8574 18.7786 32.581 19.8578 30.3046 20.9369C28.7184 21.6904 27.1322 22.4375 25.546 23.1973V46.3061C37.933 40.2846 38.4173 35.3423 38.4173 35.3423V20.375L39.5979 19.8003C39.5979 19.7684 39.604 19.7364 39.61 19.7109L44.6532 17.2908C44.6714 17.3547 44.6896 17.4185 44.6956 17.4696C44.7077 17.5718 44.7017 17.674 44.7017 17.7825C44.7017 24.7745 44.7017 31.7665 44.7017 38.7585C44.7017 40.0292 44.4716 41.2425 43.8722 42.3663Z" fill="white"/>
</svg>
